<svg width="165" height="164" viewBox="0 0 165 164" fill="none" xmlns="http://www.w3.org/2000/svg">
<rect x="1" y="0.5" width="163" height="163" rx="10.5" fill="#F6F6F6"/>
<g clip-path="url(#clip0_4349_22799)">
<path d="M60.7222 45.7227H104.278C105.103 45.7227 105.894 46.0504 106.478 46.6339C107.061 47.2173 107.389 48.0086 107.389 48.8338V86.1671C107.389 86.9922 107.061 87.7835 106.478 88.367C105.894 88.9504 105.103 89.2782 104.278 89.2782H60.7222C59.8971 89.2782 59.1058 88.9504 58.5224 88.367C57.9389 87.7835 57.6111 86.9922 57.6111 86.1671V48.8338C57.6111 48.0086 57.9389 47.2173 58.5224 46.6339C59.1058 46.0504 59.8971 45.7227 60.7222 45.7227ZM104.278 86.1671V48.8338H60.7222V86.1671H104.278Z" fill="#E02D3C"/>
<path d="M96.6243 61.2777C95.7014 61.2777 94.7991 61.004 94.0317 60.4912C93.2643 59.9784 92.6661 59.2496 92.3129 58.3969C91.9597 57.5441 91.8673 56.6058 92.0474 55.7006C92.2274 54.7953 92.6719 53.9638 93.3245 53.3112C93.9772 52.6585 94.8087 52.2141 95.7139 52.034C96.6192 51.8539 97.5575 51.9464 98.4102 52.2996C99.2629 52.6528 99.9918 53.2509 100.505 54.0183C101.017 54.7858 101.291 55.688 101.291 56.611C101.291 57.8487 100.799 59.0357 99.9242 59.9108C99.049 60.786 97.862 61.2777 96.6243 61.2777ZM96.6243 54.1221C96.1314 54.119 95.6487 54.2624 95.2374 54.534C94.826 54.8056 94.5046 55.1932 94.3139 55.6477C94.1231 56.1022 94.0716 56.6031 94.1658 57.087C94.2601 57.5708 94.4959 58.0157 94.8434 58.3653C95.1908 58.715 95.6343 58.9536 96.1175 59.0509C96.6007 59.1482 97.1019 59.0998 97.5576 58.9119C98.0133 58.724 98.4029 58.405 98.6771 57.9954C98.9513 57.5857 99.0977 57.1039 99.0977 56.611C99.0936 55.9563 98.8317 55.3296 98.3688 54.8666C97.9058 54.4036 97.2791 54.1418 96.6243 54.1377V54.1221Z" fill="#E02D3C"/>
<path d="M75.0643 63.4084L83.4643 71.8084L89.6866 65.5862C89.978 65.2965 90.3723 65.1338 90.7832 65.1338C91.1942 65.1338 91.5885 65.2965 91.8799 65.5862L101.291 75.1217V79.524L90.7288 68.9617L85.611 74.0017L91.4443 79.8351H87.1666L74.0221 66.6906L63.8332 76.8328V72.4462L72.871 63.4084C73.1625 63.1187 73.5567 62.9561 73.9677 62.9561C74.3786 62.9561 74.7729 63.1187 75.0643 63.4084Z" fill="#E02D3C"/>
</g>
<path d="M68.352 109.778V113.04H71.908V114.09H68.352V117.45H72.328V118.5H67.078V108.728H72.328V109.778H68.352ZM75.7297 112.074C75.9537 111.635 76.2711 111.295 76.6817 111.052C77.1017 110.809 77.6104 110.688 78.2077 110.688V112.004H77.8717C76.4437 112.004 75.7297 112.779 75.7297 114.328V118.5H74.4557V110.828H75.7297V112.074ZM81.1524 112.074C81.3764 111.635 81.6937 111.295 82.1044 111.052C82.5244 110.809 83.0331 110.688 83.6304 110.688V112.004H83.2944C81.8664 112.004 81.1524 112.779 81.1524 114.328V118.5H79.8784V110.828H81.1524V112.074ZM88.647 118.626C87.9284 118.626 87.275 118.463 86.687 118.136C86.1084 117.809 85.651 117.347 85.315 116.75C84.9884 116.143 84.825 115.443 84.825 114.65C84.825 113.866 84.993 113.175 85.329 112.578C85.6744 111.971 86.141 111.509 86.729 111.192C87.317 110.865 87.975 110.702 88.703 110.702C89.431 110.702 90.089 110.865 90.677 111.192C91.265 111.509 91.727 111.967 92.063 112.564C92.4084 113.161 92.581 113.857 92.581 114.65C92.581 115.443 92.4037 116.143 92.049 116.75C91.7037 117.347 91.2324 117.809 90.635 118.136C90.0377 118.463 89.375 118.626 88.647 118.626ZM88.647 117.506C89.1044 117.506 89.5337 117.399 89.935 117.184C90.3364 116.969 90.6584 116.647 90.901 116.218C91.153 115.789 91.279 115.266 91.279 114.65C91.279 114.034 91.1577 113.511 90.915 113.082C90.6724 112.653 90.355 112.335 89.963 112.13C89.571 111.915 89.1464 111.808 88.689 111.808C88.2224 111.808 87.793 111.915 87.401 112.13C87.0184 112.335 86.7104 112.653 86.477 113.082C86.2437 113.511 86.127 114.034 86.127 114.65C86.127 115.275 86.239 115.803 86.463 116.232C86.6964 116.661 87.0044 116.983 87.387 117.198C87.7697 117.403 88.1897 117.506 88.647 117.506ZM95.7301 112.074C95.9541 111.635 96.2715 111.295 96.6821 111.052C97.1021 110.809 97.6108 110.688 98.2081 110.688V112.004H97.8721C96.4441 112.004 95.7301 112.779 95.7301 114.328V118.5H94.4561V110.828H95.7301V112.074Z" fill="#E02D3C"/>
<rect x="1" y="0.5" width="163" height="163" rx="10.5" stroke="#E02D3C"/>
<defs>
<clipPath id="clip0_4349_22799">
<rect width="56" height="56" fill="white" transform="matrix(-1 0 0 1 110.5 39.5)"/>
</clipPath>
</defs>
</svg>
