<svg width="114" height="73" viewBox="0 0 114 73" fill="none" xmlns="http://www.w3.org/2000/svg">
<path fill-rule="evenodd" clip-rule="evenodd" d="M4.69081 2.35876C2.6288 2.35876 0.957214 4.03035 0.957214 6.09236L0.957214 42.2615C0.957214 44.3235 2.6288 45.9951 4.6908 45.9951L109.309 45.9951C111.371 45.9951 113.043 44.3235 113.043 42.2615V6.09236C113.043 4.03035 111.371 2.35876 109.309 2.35876L4.69081 2.35876ZM88.4342 39.1222C90.2516 39.8668 92.3074 40.2392 94.6015 40.2392C96.9552 40.2392 98.9961 39.8073 100.724 38.9435C102.452 38.0797 103.763 36.918 104.657 35.4585C105.58 33.999 106.042 32.3756 106.042 30.5884C106.042 28.7119 105.58 27.1779 104.657 25.9865C103.733 24.795 102.631 23.8865 101.35 23.261C100.098 22.6355 98.4598 21.9802 96.4338 21.2951C94.4078 20.6398 92.9181 20.0292 91.9647 19.4633C91.0113 18.8973 90.5346 18.108 90.5346 17.0953C90.5346 16.1719 90.8177 15.4719 91.3837 14.9953C91.9498 14.489 92.6947 14.2358 93.6183 14.2358C94.6909 14.2358 95.5698 14.5337 96.255 15.1294C96.9403 15.6953 97.3127 16.4846 97.3723 17.4974H105.64C105.491 14.5485 104.359 12.255 102.244 10.6168C100.128 8.94873 97.3425 8.11472 93.8864 8.11472C90.4899 8.11472 87.734 8.94873 85.6187 10.6168C83.5033 12.255 82.4456 14.5337 82.4456 17.4527C82.4456 19.4186 82.9074 21.0122 83.831 22.2334C84.7546 23.4546 85.857 24.378 87.1381 25.0035C88.4193 25.629 90.0728 26.2545 92.0988 26.88C93.4991 27.2971 94.5717 27.6694 95.3165 27.997C96.0912 28.3247 96.7317 28.7417 97.2382 29.2481C97.7745 29.7544 98.0427 30.3948 98.0427 31.1693C98.0427 32.0926 97.7149 32.8224 97.0595 33.3586C96.404 33.8649 95.5102 34.1181 94.378 34.1181C93.2757 34.1181 92.3818 33.8202 91.6966 33.2245C91.0113 32.599 90.6091 31.7054 90.4899 30.5438H82.3562C82.4158 32.599 82.9819 34.3564 84.0545 35.8159C85.1569 37.2754 86.6167 38.3775 88.4342 39.1222ZM32.2247 8.56151V14.6826H23.9123L23.9123 39.9264H16.2702V14.6826H7.9577L7.9577 8.56151L32.2247 8.56151ZM79.3244 8.56151L71.146 39.9264L61.895 39.9264L56.8897 19.2846L51.7056 39.9264H42.4546L34.4996 8.56151L42.678 8.56151L47.1918 31.3927L52.7781 8.56151H61.18L66.5428 31.3927L71.1013 8.56151H79.3244Z" fill="#1DB46A"/>
<path d="M7.461 72.4956C6.24253 72.4956 5.15065 72.2985 4.18537 71.9043C3.22009 71.5101 2.4447 70.9267 1.8592 70.154C1.28952 69.3814 0.988863 68.4511 0.957214 67.3631H5.27725C5.34054 67.978 5.55417 68.4511 5.91813 68.7822C6.28209 69.0976 6.75682 69.2552 7.34232 69.2552C7.94364 69.2552 8.41837 69.1212 8.7665 68.8531C9.11464 68.5693 9.2887 68.183 9.2887 67.6942C9.2887 67.2842 9.14629 66.9452 8.86145 66.6771C8.59244 66.4091 8.25221 66.1883 7.84078 66.0149C7.44517 65.8414 6.8755 65.6443 6.13176 65.4236C5.05571 65.0924 4.17746 64.7613 3.49701 64.4302C2.81657 64.099 2.23107 63.6102 1.74052 62.9637C1.24996 62.3172 1.00469 61.4736 1.00469 60.433C1.00469 58.8877 1.56645 57.6814 2.68997 56.8142C3.8135 55.9311 5.27725 55.4896 7.08122 55.4896C8.91683 55.4896 10.3964 55.9311 11.5199 56.8142C12.6435 57.6814 13.2448 58.8956 13.3239 60.4566H8.93266C8.90101 59.9205 8.70321 59.5026 8.33925 59.203C7.97529 58.8877 7.50847 58.73 6.9388 58.73C6.44824 58.73 6.05264 58.864 5.75198 59.1321C5.45131 59.3844 5.30098 59.7549 5.30098 60.2437C5.30098 60.7798 5.55417 61.1977 6.06055 61.4973C6.56693 61.7969 7.35814 62.1201 8.43419 62.467C9.51024 62.8297 10.3806 63.1766 11.0452 63.5077C11.7256 63.8389 12.3111 64.3198 12.8017 64.9505C13.2923 65.5813 13.5375 66.3933 13.5375 67.3867C13.5375 68.3328 13.2923 69.1922 12.8017 69.9648C12.327 70.7374 11.6307 71.3524 10.7129 71.8097C9.79508 72.267 8.71112 72.4956 7.461 72.4956Z" fill="#1DB46A"/>
<path d="M22.1139 72.5192C20.8163 72.5192 19.6453 72.2433 18.6009 71.6914C17.5724 71.1395 16.7574 70.3511 16.1561 69.3262C15.5706 68.3013 15.2778 67.1029 15.2778 65.7311C15.2778 64.375 15.5785 63.1845 16.1798 62.1596C16.7811 61.1189 17.604 60.3226 18.6484 59.7707C19.6928 59.2188 20.8638 58.9429 22.1614 58.9429C23.459 58.9429 24.63 59.2188 25.6744 59.7707C26.7188 60.3226 27.5417 61.1189 28.143 62.1596C28.7443 63.1845 29.045 64.375 29.045 65.7311C29.045 67.0871 28.7364 68.2855 28.1192 69.3262C27.5179 70.3511 26.6871 71.1395 25.6269 71.6914C24.5825 72.2433 23.4115 72.5192 22.1139 72.5192ZM22.1139 69.0187C22.8893 69.0187 23.546 68.7349 24.084 68.1672C24.6379 67.5996 24.9148 66.7875 24.9148 65.7311C24.9148 64.6746 24.6458 63.8625 24.1078 63.2949C23.5856 62.7272 22.9368 62.4434 22.1614 62.4434C21.3702 62.4434 20.7135 62.7272 20.1913 63.2949C19.6691 63.8468 19.408 64.6588 19.408 65.7311C19.408 66.7875 19.6612 67.5996 20.1675 68.1672C20.6897 68.7349 21.3385 69.0187 22.1139 69.0187Z" fill="#1DB46A"/>
<path d="M35.3067 54.8274V72.33H31.2478V54.8274H35.3067Z" fill="#1DB46A"/>
<path d="M51.3764 59.1321V72.33H47.3174V70.5325C46.906 71.1159 46.3443 71.5889 45.6322 71.9516C44.9359 72.2985 44.1605 72.4719 43.306 72.4719C42.2932 72.4719 41.3992 72.2512 40.6238 71.8097C39.8484 71.3524 39.2471 70.698 38.8198 69.8465C38.3925 68.9951 38.1789 67.9938 38.1789 66.8427V59.1321H42.2141V66.2987C42.2141 67.1817 42.4436 67.8676 42.9025 68.3565C43.3614 68.8453 43.9785 69.0897 44.7539 69.0897C45.5451 69.0897 46.1702 68.8453 46.6291 68.3565C47.088 67.8676 47.3174 67.1817 47.3174 66.2987V59.1321H51.3764Z" fill="#1DB46A"/>
<path d="M61.7234 68.9005V72.33H59.6583C58.1866 72.33 57.0394 71.9752 56.2165 71.2657C55.3936 70.5403 54.9822 69.3656 54.9822 67.7415V62.4907H53.3681V59.1321H54.9822V55.9154H59.0411V59.1321H61.6996V62.4907H59.0411V67.7888C59.0411 68.183 59.1361 68.4668 59.326 68.6403C59.5159 68.8137 59.8324 68.9005 60.2754 68.9005H61.7234Z" fill="#1DB46A"/>
<path d="M66.075 57.7602C65.3629 57.7602 64.7774 57.5553 64.3185 57.1453C63.8755 56.7195 63.6539 56.1992 63.6539 55.5842C63.6539 54.9535 63.8755 54.4332 64.3185 54.0232C64.7774 53.5975 65.3629 53.3846 66.075 53.3846C66.7713 53.3846 67.341 53.5975 67.7841 54.0232C68.243 54.4332 68.4724 54.9535 68.4724 55.5842C68.4724 56.1992 68.243 56.7195 67.7841 57.1453C67.341 57.5553 66.7713 57.7602 66.075 57.7602ZM68.0926 59.1321V72.33H64.0337V59.1321H68.0926Z" fill="#1DB46A"/>
<path d="M77.1126 72.5192C75.815 72.5192 74.644 72.2433 73.5996 71.6914C72.571 71.1395 71.7561 70.3511 71.1548 69.3262C70.5693 68.3013 70.2765 67.1029 70.2765 65.7311C70.2765 64.375 70.5772 63.1845 71.1785 62.1596C71.7798 61.1189 72.6027 60.3226 73.6471 59.7707C74.6915 59.2188 75.8625 58.9429 77.1601 58.9429C78.4577 58.9429 79.6287 59.2188 80.6731 59.7707C81.7175 60.3226 82.5403 61.1189 83.1417 62.1596C83.743 63.1845 84.0437 64.375 84.0437 65.7311C84.0437 67.0871 83.7351 68.2855 83.1179 69.3262C82.5166 70.3511 81.6858 71.1395 80.6256 71.6914C79.5812 72.2433 78.4102 72.5192 77.1126 72.5192ZM77.1126 69.0187C77.888 69.0187 78.5447 68.7349 79.0827 68.1672C79.6366 67.5996 79.9135 66.7875 79.9135 65.7311C79.9135 64.6746 79.6445 63.8625 79.1065 63.2949C78.5843 62.7272 77.9355 62.4434 77.1601 62.4434C76.3689 62.4434 75.7122 62.7272 75.19 63.2949C74.6678 63.8468 74.4067 64.6588 74.4067 65.7311C74.4067 66.7875 74.6598 67.5996 75.1662 68.1672C75.6884 68.7349 76.3372 69.0187 77.1126 69.0187Z" fill="#1DB46A"/>
<path d="M94.3168 58.9902C95.8676 58.9902 97.1019 59.4947 98.0197 60.5039C98.9533 61.4973 99.4202 62.8691 99.4202 64.6194V72.33H95.385V65.1634C95.385 64.2804 95.1555 63.5945 94.6966 63.1057C94.2377 62.6168 93.6206 62.3724 92.8452 62.3724C92.0698 62.3724 91.4526 62.6168 90.9937 63.1057C90.5348 63.5945 90.3054 64.2804 90.3054 65.1634V72.33H86.2464V59.1321H90.3054V60.8823C90.7168 60.2989 91.2707 59.8416 91.9669 59.5105C92.6632 59.1636 93.4465 58.9902 94.3168 58.9902Z" fill="#1DB46A"/>
<path d="M107.678 72.5192C106.523 72.5192 105.495 72.3221 104.593 71.9279C103.691 71.5337 102.979 70.9976 102.456 70.3196C101.934 69.6258 101.641 68.8531 101.578 68.0017H105.59C105.637 68.4589 105.851 68.8295 106.23 69.1133C106.61 69.3971 107.077 69.5391 107.631 69.5391C108.137 69.5391 108.525 69.4445 108.794 69.2552C109.079 69.0502 109.221 68.7901 109.221 68.4747C109.221 68.0963 109.023 67.8203 108.628 67.6469C108.232 67.4577 107.591 67.2527 106.705 67.0319C105.756 66.8112 104.964 66.5825 104.332 66.346C103.699 66.0937 103.153 65.7074 102.694 65.1871C102.235 64.6509 102.005 63.9335 102.005 63.0347C102.005 62.2778 102.211 61.5919 102.622 60.977C103.05 60.3462 103.667 59.8495 104.474 59.4869C105.297 59.1242 106.27 58.9429 107.394 58.9429C109.055 58.9429 110.361 59.3528 111.31 60.1728C112.275 60.9927 112.829 62.0807 112.972 63.4368H109.221C109.158 62.9795 108.952 62.6168 108.604 62.3488C108.272 62.0807 107.829 61.9467 107.275 61.9467C106.8 61.9467 106.436 62.0413 106.183 62.2305C105.93 62.404 105.803 62.6484 105.803 62.9637C105.803 63.3422 106.001 63.626 106.397 63.8152C106.808 64.0044 107.441 64.1937 108.295 64.3829C109.277 64.6352 110.076 64.8875 110.693 65.1397C111.31 65.3763 111.848 65.7705 112.307 66.3224C112.782 66.8585 113.027 67.5838 113.043 68.4984C113.043 69.271 112.821 69.9648 112.378 70.5798C111.951 71.179 111.326 71.652 110.503 71.9989C109.696 72.3458 108.754 72.5192 107.678 72.5192Z" fill="#1DB46A"/>
</svg>
