<svg width="134" height="52" viewBox="0 0 134 52" fill="none" xmlns="http://www.w3.org/2000/svg">
<rect x="0.5" width="52" height="52" rx="10" fill="#34DC75"/>
<path fill-rule="evenodd" clip-rule="evenodd" d="M25.0063 19.3965L23.829 20.5626C23.6316 20.7581 23.45 20.99 23.2927 21.2624L14.9211 35.7665C13.6809 37.9153 15.2312 40.6012 17.7117 40.6012H34.4549C36.9353 40.6012 38.4856 37.9153 37.2454 35.7665L28.8738 21.2624C28.7165 20.99 28.5349 20.7581 28.3375 20.5626L27.1602 19.3965L30.7341 13.2045C30.9409 12.8464 30.6825 12.3988 30.2691 12.3988L21.8975 12.3988C21.484 12.3988 21.2257 12.8464 21.4324 13.2045L25.0063 19.3965ZM29.8489 19.0357L32.5945 14.2789C33.628 12.4883 32.3361 10.25 30.2691 10.25L21.8975 10.25C19.8304 10.25 18.5385 12.4883 19.572 14.2789L22.3176 19.0357C21.9838 19.3664 21.6849 19.7505 21.4324 20.188L13.0608 34.6921C10.9937 38.2734 13.5775 42.75 17.7117 42.75H34.4549C38.589 42.75 41.1728 38.2734 39.1057 34.6921L30.7341 20.188C30.4816 19.7505 30.1828 19.3664 29.8489 19.0357Z" fill="white"/>
<path d="M26.5681 17.8802C26.3526 18.2622 25.8139 18.2622 25.5984 17.8802L23.6591 14.4427C23.4436 14.0608 23.713 13.5834 24.1439 13.5834L28.0226 13.5834C28.4535 13.5834 28.7229 14.0608 28.5074 14.4427L26.5681 17.8802Z" fill="white"/>
<path fill-rule="evenodd" clip-rule="evenodd" d="M24.7319 21.8942C25.3505 20.813 26.8968 20.813 27.5154 21.8942L35.8656 36.491C36.056 36.8237 36.1145 37.182 36.0683 37.5187C35.7268 37.3789 35.3534 37.302 34.9622 37.302C34.391 37.302 33.8578 37.466 33.4063 37.75C32.8669 37.1431 32.0839 36.7614 31.2125 36.7614C30.4983 36.7614 29.8435 37.0178 29.3335 37.4445C29.2684 36.4591 28.4557 35.6801 27.4628 35.6801C27.1753 35.6801 26.9028 35.7454 26.6593 35.8622C26.1261 35.0981 25.2452 34.5989 24.2488 34.5989C22.8249 34.5989 21.6369 35.6183 21.3624 36.9734C21.104 36.8379 20.8104 36.7614 20.4991 36.7614C19.8791 36.7614 19.3293 37.0651 18.988 37.5332C18.6608 36.7615 17.9016 36.2207 17.0172 36.2207C16.8389 36.2207 16.6656 36.2427 16.5 36.2842L24.7319 21.8942ZM30.1412 30.8145C30.5849 30.8145 30.9447 30.4514 30.9447 30.0036C30.9447 29.5557 30.5849 29.1926 30.1412 29.1926C29.6974 29.1926 29.3377 29.5557 29.3377 30.0036C29.3377 30.4514 29.6974 30.8145 30.1412 30.8145ZM30.9447 32.1661C30.9447 32.6139 30.5849 32.977 30.1412 32.977C29.6974 32.977 29.3377 32.6139 29.3377 32.1661C29.3377 31.7182 29.6974 31.3551 30.1412 31.3551C30.5849 31.3551 30.9447 31.7182 30.9447 32.1661ZM33.623 34.5989C33.623 35.4946 32.9035 36.2207 32.016 36.2207C31.1285 36.2207 30.409 35.4946 30.409 34.5989C30.409 33.7031 31.1285 32.977 32.016 32.977C32.9035 32.977 33.623 33.7031 33.623 34.5989ZM22.1061 31.3551C22.5499 31.3551 22.9096 30.9921 22.9096 30.5442C22.9096 30.0963 22.5499 29.7333 22.1061 29.7333C21.6623 29.7333 21.3026 30.0963 21.3026 30.5442C21.3026 30.9921 21.6623 31.3551 22.1061 31.3551ZM22.3739 33.5176C22.3739 34.4134 21.6545 35.1395 20.7669 35.1395C19.8794 35.1395 19.1599 34.4134 19.1599 33.5176C19.1599 32.6219 19.8794 31.8958 20.7669 31.8958C21.6545 31.8958 22.3739 32.6219 22.3739 33.5176ZM25.0523 33.2473C25.0523 33.6952 24.6925 34.0582 24.2488 34.0582C23.805 34.0582 23.4453 33.6952 23.4453 33.2473C23.4453 32.7994 23.805 32.4364 24.2488 32.4364C24.6925 32.4364 25.0523 32.7994 25.0523 33.2473Z" fill="white"/>
<path d="M85.2387 16.26V20.628H79.9747V36H74.4867V20.628H69.2787V16.26H85.2387ZM115.073 16.26L110.229 36H103.481L100.765 23.904L97.9932 36H91.2452L86.4572 16.26H92.3932L94.6892 29.756L97.7972 16.26H103.817L106.841 29.644L109.137 16.26H115.073ZM124.85 36.196C122.554 36.196 120.669 35.6547 119.194 34.572C117.719 33.4707 116.926 31.9027 116.814 29.868H122.666C122.722 30.5587 122.927 31.0627 123.282 31.38C123.637 31.6973 124.094 31.856 124.654 31.856C125.158 31.856 125.569 31.7347 125.886 31.492C126.222 31.2307 126.39 30.876 126.39 30.428C126.39 29.8493 126.119 29.4013 125.578 29.084C125.037 28.7667 124.159 28.412 122.946 28.02C121.658 27.5907 120.613 27.18 119.81 26.788C119.026 26.3773 118.335 25.7893 117.738 25.024C117.159 24.24 116.87 23.2227 116.87 21.972C116.87 20.7027 117.187 19.62 117.822 18.724C118.457 17.8093 119.334 17.1187 120.454 16.652C121.574 16.1853 122.843 15.952 124.262 15.952C126.558 15.952 128.387 16.4933 129.75 17.576C131.131 18.64 131.869 20.1427 131.962 22.084H125.998C125.979 21.4867 125.793 21.0387 125.438 20.74C125.102 20.4413 124.663 20.292 124.122 20.292C123.711 20.292 123.375 20.4133 123.114 20.656C122.853 20.8987 122.722 21.244 122.722 21.692C122.722 22.0653 122.862 22.392 123.142 22.672C123.441 22.9333 123.805 23.1667 124.234 23.372C124.663 23.5587 125.298 23.8013 126.138 24.1C127.389 24.5293 128.415 24.9587 129.218 25.388C130.039 25.7987 130.739 26.3867 131.318 27.152C131.915 27.8987 132.214 28.8507 132.214 30.008C132.214 31.184 131.915 32.2387 131.318 33.172C130.739 34.1053 129.89 34.8427 128.77 35.384C127.669 35.9253 126.362 36.196 124.85 36.196Z" fill="#3F444D"/>
</svg>
