<svg width="25" height="34" viewBox="0 0 25 34" fill="none" xmlns="http://www.w3.org/2000/svg">
<path d="M12.7318 15.8066C11.6081 15.8066 10.5305 15.3683 9.736 14.5882C8.94148 13.8082 8.49512 12.7501 8.49512 11.6469C8.49512 10.5437 8.94148 9.48573 9.736 8.70565C10.5305 7.92557 11.6081 7.48732 12.7318 7.48732C13.8554 7.48732 14.933 7.92557 15.7275 8.70565C16.5221 9.48573 16.9684 10.5437 16.9684 11.6469C16.9684 12.1932 16.8588 12.7341 16.6459 13.2388C16.433 13.7434 16.1209 14.202 15.7275 14.5882C15.3341 14.9745 14.8671 15.2809 14.3531 15.4899C13.8391 15.699 13.2881 15.8066 12.7318 15.8066ZM12.7318 0C9.58561 0 6.5683 1.22709 4.34362 3.41131C2.11895 5.59554 0.869141 8.55798 0.869141 11.6469C0.869141 18.0304 7.20403 26.6351 10.6152 30.8057C11.7265 32.1645 13.7371 32.1645 14.8484 30.8057C18.2595 26.6351 24.5944 18.0304 24.5944 11.6469C24.5944 8.55798 23.3446 5.59554 21.1199 3.41131C18.8952 1.22709 15.8779 0 12.7318 0Z" fill="#E02D3C"/>
</svg>
