<svg width="26" height="38" viewBox="0 0 26 38" fill="none" xmlns="http://www.w3.org/2000/svg">
<path d="M9.40538 17.0938C10.3587 18.0471 11.6517 18.5827 12.9998 18.5827C13.6674 18.5827 14.3284 18.4512 14.9451 18.1957C15.5619 17.9403 16.1223 17.5658 16.5943 17.0938C17.0663 16.6218 17.4408 16.0614 17.6962 15.4447C17.9517 14.8279 18.0832 14.1669 18.0832 13.4993C18.0832 12.1512 17.5476 10.8582 16.5943 9.90489C15.641 8.95158 14.348 8.41602 12.9998 8.41602C11.6517 8.41602 10.3587 8.95158 9.40538 9.90489C8.45207 10.8582 7.9165 12.1512 7.9165 13.4993C7.9165 14.8475 8.45207 16.1405 9.40538 17.0938ZM12.9998 36.5765C12.9473 36.5161 12.8897 36.4495 12.8272 36.377C12.4791 35.973 11.981 35.3841 11.3829 34.6472C10.1862 33.1727 8.59142 31.1079 6.99765 28.7457C5.40293 26.3821 3.81537 23.7298 2.62801 21.0794C1.43772 18.4225 0.666504 15.8044 0.666504 13.4993C0.666504 10.2283 1.9659 7.09131 4.27885 4.77837C6.5918 2.46542 9.72883 1.16602 12.9998 1.16602C16.2708 1.16602 19.4079 2.46542 21.7208 4.77837C24.0338 7.09131 25.3332 10.2283 25.3332 13.4993C25.3332 15.8044 24.562 18.4225 23.3717 21.0794C22.1843 23.7298 20.5967 26.3821 19.002 28.7457C17.4083 31.1079 15.8135 33.1727 14.6168 34.6472C14.0187 35.3841 13.5206 35.973 13.1725 36.377C13.11 36.4495 13.0523 36.5161 12.9998 36.5765Z" fill="#BABABA" stroke="#49516F"/>
</svg>
