<svg width="194" height="194" viewBox="0 0 194 194" fill="none" xmlns="http://www.w3.org/2000/svg">
<path opacity="0.1" d="M103.89 51.9282C116.556 44.6151 132.39 53.7565 132.39 68.3827L132.39 125.449C132.39 140.076 116.556 149.217 103.89 141.904L54.4684 113.37C41.8017 106.057 41.8017 87.7746 54.4684 80.4615L103.89 51.9282Z" fill="url(#paint0_linear_2388_11296)"/>
<rect x="54.7822" y="63.967" width="45.0016" height="65.1515" fill="white"/>
<path d="M54.7822 59.5784C54.7822 57.9215 56.1254 56.5784 57.7822 56.5784H96.7838C98.4406 56.5784 99.7838 57.9215 99.7838 59.5784V63.9667H54.7822V59.5784Z" fill="url(#paint1_linear_2388_11296)"/>
<path d="M99.7842 133.507C99.7842 135.164 98.441 136.507 96.7842 136.507L57.7826 136.507C56.1258 136.507 54.7826 135.164 54.7826 133.507L54.7826 129.118L99.7842 129.118L99.7842 133.507Z" fill="white"/>
<rect x="72.7432" y="69.1516" width="24.2479" height="3.59228" rx="1.79614" fill="#E1E6EF"/>
<rect x="72.7432" y="93.3994" width="24.2479" height="3.59228" rx="1.79614" fill="#E1E6EF"/>
<rect x="72.7432" y="115.851" width="24.2479" height="3.59228" rx="1.79614" fill="#E1E6EF"/>
<rect x="72.7432" y="74.54" width="24.2479" height="3.59228" rx="1.79614" fill="#E1E6EF"/>
<rect x="72.7432" y="98.7878" width="24.2479" height="3.59228" rx="1.79614" fill="#E1E6EF"/>
<rect x="72.7432" y="121.24" width="24.2479" height="3.59228" rx="1.79614" fill="#E1E6EF"/>
<rect x="72.7432" y="79.9283" width="24.2479" height="3.59228" rx="1.79614" fill="#E1E6EF"/>
<rect x="72.7432" y="104.176" width="24.2479" height="3.59228" rx="1.79614" fill="#E1E6EF"/>
<rect x="72.7432" y="126.628" width="24.2479" height="3.59228" rx="1.79614" fill="#E1E6EF"/>
<path fill-rule="evenodd" clip-rule="evenodd" d="M62.0119 67.076C61.5761 67.076 61.2229 67.4239 61.2229 67.8529V68.1119C60.9324 68.1119 60.6969 68.3437 60.6969 68.6298V70.1835C60.6969 70.4695 60.9324 70.7014 61.2229 70.7014V71.3077C60.61 71.521 60.1709 72.0965 60.1709 72.773V83.6489C60.1709 84.507 60.8774 85.2026 61.7489 85.2026H67.0088C67.8803 85.2026 68.5868 84.507 68.5868 83.6489V72.773C68.5868 72.0965 68.1477 71.521 67.5348 71.3077V70.1835C67.5348 69.8974 67.2993 69.6656 67.0088 69.6656H63.8529C63.5624 69.6656 63.3269 69.8974 63.3269 70.1835V71.2193H62.8009V67.8529C62.8009 67.4239 62.4476 67.076 62.0119 67.076Z" fill="#E1E6EF"/>
<path fill-rule="evenodd" clip-rule="evenodd" d="M62.0119 89.6931C61.5761 89.6931 61.2229 90.0409 61.2229 90.47V90.7289C60.9324 90.7289 60.6969 90.9608 60.6969 91.2468V92.8005C60.6969 93.0866 60.9324 93.3184 61.2229 93.3184V93.9247C60.61 94.138 60.1709 94.7135 60.1709 95.39V106.266C60.1709 107.124 60.8774 107.82 61.7489 107.82H67.0088C67.8803 107.82 68.5868 107.124 68.5868 106.266V95.39C68.5868 94.7135 68.1477 94.138 67.5348 93.9247V92.8005C67.5348 92.5145 67.2993 92.2826 67.0088 92.2826H63.8529C63.5624 92.2826 63.3269 92.5145 63.3269 92.8005V93.8363H62.8009V90.47C62.8009 90.0409 62.4476 89.6931 62.0119 89.6931Z" fill="url(#paint2_linear_2388_11296)"/>
<path fill-rule="evenodd" clip-rule="evenodd" d="M62.0119 112.31C61.5761 112.31 61.2229 112.658 61.2229 113.087V113.345C60.9324 113.345 60.6969 113.577 60.6969 113.863V115.417C60.6969 115.703 60.9324 115.935 61.2229 115.935V116.541C60.61 116.755 60.1709 117.33 60.1709 118.007V128.883C60.1709 129.741 60.8774 130.436 61.7489 130.436H67.0088C67.8803 130.436 68.5868 129.741 68.5868 128.883V118.007C68.5868 117.33 68.1477 116.755 67.5348 116.541V115.417C67.5348 115.131 67.2993 114.899 67.0088 114.899H63.8529C63.5624 114.899 63.3269 115.131 63.3269 115.417V116.453H62.8009V113.087C62.8009 112.658 62.4476 112.31 62.0119 112.31Z" fill="#E1E6EF"/>
<g filter="url(#filter0_d_2388_11296)">
<path d="M124.861 76.9444C133.629 85.7124 133.629 99.928 124.861 108.696C116.093 117.464 101.877 117.464 93.1092 108.696C84.3412 99.928 84.3412 85.7124 93.1092 76.9444C101.877 68.1765 116.093 68.1765 124.861 76.9444ZM97.669 104.136C103.919 110.386 114.051 110.386 120.301 104.136C126.55 97.8865 126.55 87.7539 120.301 81.5043C114.051 75.2547 103.919 75.2547 97.669 81.5043C91.4194 87.7539 91.4194 97.8865 97.669 104.136Z" fill="#34DC75"/>
<path d="M122.393 110.504C121.269 109.115 121.374 107.102 122.638 105.838C123.901 104.575 125.915 104.469 127.303 105.593L146.296 120.969C149.095 123.234 149.315 127.424 146.769 129.969C144.223 132.515 140.033 132.295 137.768 129.497L122.393 110.504Z" fill="#34DC75"/>
</g>
<path d="M101.588 99.579C100.938 100.229 99.8722 100.235 99.321 99.4992C98.4605 98.3502 97.8164 97.0484 97.4258 95.6572C97.0351 94.266 96.9074 92.8192 97.044 91.3903C97.1315 90.4749 98.0443 89.9254 98.9379 90.1421C99.8316 90.3587 100.362 91.262 100.327 92.1808C100.294 93.0468 100.396 93.9161 100.632 94.757C100.868 95.5978 101.234 96.393 101.713 97.1151C102.221 97.8813 102.238 98.9288 101.588 99.579Z" fill="#34DC75"/>
<rect x="61.0684" y="74.5397" width="1.79614" height="7.18455" rx="0.898069" fill="url(#paint3_linear_2388_11296)"/>
<rect x="61.0684" y="96.9915" width="1.79614" height="7.18455" rx="0.898069" fill="white"/>
<rect x="61.0684" y="119.443" width="1.79614" height="7.18455" rx="0.898069" fill="url(#paint4_linear_2388_11296)"/>
<circle cx="34.5752" cy="87.5617" r="2.24517" fill="#BABABA"/>
<circle cx="119.892" cy="62.4158" r="4.04131" fill="url(#paint5_linear_2388_11296)"/>
<circle cx="96.5425" cy="146.834" r="5.83745" fill="#F8F9FC"/>
<defs>
<filter id="filter0_d_2388_11296" x="86.5332" y="70.3685" width="62.0117" height="65.377" filterUnits="userSpaceOnUse" color-interpolation-filters="sRGB">
<feFlood flood-opacity="0" result="BackgroundImageFix"/>
<feColorMatrix in="SourceAlpha" type="matrix" values="0 0 0 0 0 0 0 0 0 0 0 0 0 0 0 0 0 0 127 0" result="hardAlpha"/>
<feOffset dy="4"/>
<feComposite in2="hardAlpha" operator="out"/>
<feColorMatrix type="matrix" values="0 0 0 0 0 0 0 0 0 0 0 0 0 0 0 0 0 0 0.2 0"/>
<feBlend mode="normal" in2="BackgroundImageFix" result="effect1_dropShadow_2388_11296"/>
<feBlend mode="normal" in="SourceGraphic" in2="effect1_dropShadow_2388_11296" result="shape"/>
</filter>
<linearGradient id="paint0_linear_2388_11296" x1="70.9473" y1="0" x2="217.49" y2="96.5034" gradientUnits="userSpaceOnUse">
<stop stop-color="#1CB35B"/>
<stop offset="1" stop-color="#20B598"/>
</linearGradient>
<linearGradient id="paint1_linear_2388_11296" x1="54.7822" y1="56.5784" x2="104.185" y2="74.2776" gradientUnits="userSpaceOnUse">
<stop stop-color="#1CB35B"/>
<stop offset="1" stop-color="#20B598"/>
</linearGradient>
<linearGradient id="paint2_linear_2388_11296" x1="60.1709" y1="89.6931" x2="70.5881" y2="89.9776" gradientUnits="userSpaceOnUse">
<stop stop-color="#1CB35B"/>
<stop offset="1" stop-color="#20B598"/>
</linearGradient>
<linearGradient id="paint3_linear_2388_11296" x1="61.0684" y1="74.5397" x2="63.2928" y2="74.5724" gradientUnits="userSpaceOnUse">
<stop stop-color="#1CB35B"/>
<stop offset="1" stop-color="#20B598"/>
</linearGradient>
<linearGradient id="paint4_linear_2388_11296" x1="61.0684" y1="119.443" x2="63.2928" y2="119.476" gradientUnits="userSpaceOnUse">
<stop stop-color="#1CB35B"/>
<stop offset="1" stop-color="#20B598"/>
</linearGradient>
<linearGradient id="paint5_linear_2388_11296" x1="115.851" y1="58.3745" x2="125.828" y2="58.9613" gradientUnits="userSpaceOnUse">
<stop stop-color="#1CB35B"/>
<stop offset="1" stop-color="#20B598"/>
</linearGradient>
</defs>
</svg>
