<svg width="374" height="219" viewBox="0 0 374 219" fill="none" xmlns="http://www.w3.org/2000/svg">
<path d="M119.125 162.433V114.398L154.384 125.143L189.014 115.031V162.433L154.384 173.81L119.125 162.433Z" fill="#34DC75"/>
<path d="M154.384 104.918L119.125 114.398L154.384 125.143L189.643 114.398L154.384 104.918Z" fill="#1DB46A"/>
<path d="M200.979 128.935L189.646 114.398L154.387 125.143L165.72 139.68L200.979 128.935Z" fill="#2DEABF"/>
<path d="M107.165 128.303L119.128 114.398L154.387 125.143L141.794 139.68L107.165 128.303Z" fill="#2DEABF"/>
<path d="M170.564 90.3809L154.387 104.918L189.646 114.398L207.275 100.493L170.564 90.3809Z" fill="#34DC75"/>
<path d="M138.209 90.3809L154.387 104.918L119.128 114.398L101.498 100.493L138.209 90.3809Z" fill="#34DC75"/>
<path opacity="0.1" d="M85.8494 127.808C73.6183 119.834 74.5702 101.621 87.5654 94.9753L218.618 27.955C231.65 21.2903 247.012 31.2516 246.248 45.8718L238.542 193.31C237.778 207.931 221.462 216.224 209.196 208.227L85.8494 127.808Z" fill="#1DB46A"/>
<path fill-rule="evenodd" clip-rule="evenodd" d="M148.15 15.6436C146.881 15.6436 145.852 16.6663 145.852 17.9279V18.6894C145.007 18.6894 144.321 19.3712 144.321 20.2123V24.781C144.321 25.622 145.007 26.3039 145.852 26.3039V28.0867C144.068 28.7139 142.789 30.4062 142.789 32.3955V64.3764C142.789 66.8997 144.846 68.9451 147.384 68.9451H162.701C165.239 68.9451 167.296 66.8997 167.296 64.3764V32.3955C167.296 30.4062 166.018 28.7139 164.233 28.0867V24.781C164.233 23.9399 163.547 23.2581 162.701 23.2581H153.511C152.665 23.2581 151.979 23.9399 151.979 24.781V27.8268H150.448V17.9279C150.448 16.6663 149.419 15.6436 148.15 15.6436Z" fill="#1DB46A"/>
<rect x="145.512" y="36.8271" width="5.44603" height="21.184" rx="1" fill="white"/>
<ellipse cx="94.7039" cy="93.0957" rx="3.88747" ry="3.90232" fill="#BABABA"/>
<ellipse cx="242.427" cy="49.3894" rx="6.99745" ry="7.02418" fill="#1DB46A"/>
<ellipse cx="217.229" cy="192.646" rx="10.1074" ry="10.146" fill="#F8F9FC"/>
<path d="M208.985 134.783C206.925 132.024 206.62 128.323 208.199 125.257C211.292 119.254 219.624 118.674 223.499 124.193L248.871 160.329C251.517 164.099 250.615 169.31 246.855 171.97C243.173 174.575 238.097 173.773 235.399 170.159L208.985 134.783Z" fill="#34DC75"/>
<path d="M249.592 170.997C245.606 174.578 239.501 174.318 235.827 170.41C232.282 166.64 232.228 160.767 235.704 156.937L287.582 99.7679C293.579 93.1587 304.155 93.9036 309.185 101.289C313.095 107.032 312.16 114.792 307 119.427L249.592 170.997Z" fill="#34DC75"/>
</svg>
