<svg width="32" height="32" viewBox="0 0 32 32" fill="none" xmlns="http://www.w3.org/2000/svg">
<path d="M16.4775 10.6646V17.4458" stroke="#E02D3C" stroke-width="1.5" stroke-linecap="round" stroke-linejoin="round"/>
<path d="M20.8915 4.85205H12.0636C11.9364 4.85205 11.8104 4.87711 11.6929 4.92579C11.5753 4.97448 11.4685 5.04583 11.3786 5.13579L5.13628 11.3781C5.04632 11.468 4.97497 11.5748 4.92628 11.6924C4.8776 11.8099 4.85254 11.9359 4.85254 12.0631V20.891C4.85254 21.0182 4.8776 21.1442 4.92628 21.2617C4.97497 21.3793 5.04632 21.4861 5.13628 21.576L11.3786 27.8183C11.4685 27.9083 11.5753 27.9796 11.6929 28.0283C11.8104 28.077 11.9364 28.1021 12.0636 28.1021H20.8915C21.0187 28.1021 21.1447 28.077 21.2622 28.0283C21.3798 27.9796 21.4866 27.9083 21.5765 27.8183L27.8188 21.576C27.9088 21.4861 27.9801 21.3793 28.0288 21.2617C28.0775 21.1442 28.1025 21.0182 28.1025 20.891V12.0631C28.1025 11.9359 28.0775 11.8099 28.0288 11.6924C27.9801 11.5748 27.9088 11.468 27.8188 11.3781L21.5765 5.13579C21.4866 5.04583 21.3798 4.97448 21.2622 4.92579C21.1447 4.87711 21.0187 4.85205 20.8915 4.85205Z" stroke="#E02D3C" stroke-width="1.5" stroke-miterlimit="10"/>
<path d="M16.4775 23.2583C17.2801 23.2583 17.9307 22.6077 17.9307 21.8052C17.9307 21.0026 17.2801 20.3521 16.4775 20.3521C15.675 20.3521 15.0244 21.0026 15.0244 21.8052C15.0244 22.6077 15.675 23.2583 16.4775 23.2583Z" fill="#E02D3C"/>
</svg>
