<svg width="18" height="18" viewBox="0 0 18 18" fill="none" xmlns="http://www.w3.org/2000/svg">
<path d="M9 15.1875C9 15.1875 1.96875 11.25 1.96875 6.46876C1.96889 5.62369 2.26171 4.80476 2.79741 4.1512C3.33312 3.49763 4.07865 3.04977 4.90724 2.88376C5.73584 2.71775 6.59635 2.84384 7.34249 3.24059C8.08863 3.63734 8.67432 4.28026 9.00001 5.06004L8.99999 5.06005C9.32567 4.28027 9.91137 3.63734 10.6575 3.24059C11.4036 2.84384 12.2642 2.71775 13.0928 2.88376C13.9214 3.04977 14.6669 3.49763 15.2026 4.1512C15.7383 4.80476 16.0311 5.62369 16.0312 6.46876C16.0312 11.25 9 15.1875 9 15.1875Z" fill="#BA2532"/>
<path fill-rule="evenodd" clip-rule="evenodd" d="M8.5114 16.06L9 15.1875L9.4886 16.06C9.18505 16.23 8.81495 16.23 8.5114 16.06ZM8.38405 4.06859C8.09254 3.73366 7.74032 3.45213 7.34249 3.24059C6.59636 2.84384 5.73584 2.71775 4.90724 2.88376C4.07865 3.04977 3.33312 3.49763 2.79741 4.1512C2.26171 4.80476 1.96889 5.6237 1.96875 6.46876C1.96875 11.25 9 15.1875 9 15.1875C8.5114 16.06 8.51167 16.0602 8.5114 16.06L8.50834 16.0583L8.50273 16.0551L8.48399 16.0445C8.46822 16.0355 8.44594 16.0227 8.41759 16.0061C8.36091 15.9731 8.27989 15.9252 8.17801 15.8632C7.97435 15.7393 7.68666 15.5586 7.34284 15.3271C6.65715 14.8654 5.73856 14.1952 4.81541 13.3644C3.0296 11.7572 0.96875 9.31964 0.96875 6.46876C0.968932 5.39261 1.34182 4.34956 2.02402 3.51727C2.70622 2.68498 3.65561 2.11465 4.7108 1.90325C5.76598 1.69184 6.86181 1.85241 7.81198 2.35766C8.25719 2.59439 8.65755 2.89995 9 3.26002C9.34245 2.89995 9.7428 2.59439 10.188 2.35766C11.1382 1.85241 12.234 1.69184 13.2892 1.90325C14.3444 2.11465 15.2938 2.68498 15.976 3.51727C16.6582 4.34956 17.0311 5.39244 17.0312 6.46859C17.0312 9.31948 14.9704 11.7572 13.1846 13.3644C12.2614 14.1952 11.3429 14.8654 10.6572 15.3271C10.3133 15.5586 10.0256 15.7393 9.82199 15.8632C9.72011 15.9252 9.63909 15.9731 9.58241 16.0061C9.55406 16.0227 9.53178 16.0355 9.51601 16.0445L9.49727 16.0551L9.49166 16.0583L9.48981 16.0593C9.48953 16.0595 9.4886 16.06 9 15.1875C9 15.1875 16.0312 11.25 16.0312 6.46876C16.0311 5.62369 15.7383 4.80476 15.2026 4.1512C14.6669 3.49763 13.9214 3.04977 13.0928 2.88376C12.2642 2.71775 11.4036 2.84384 10.6575 3.2406C10.2597 3.45214 9.90746 3.73366 9.61595 4.06859C9.36073 4.36184 9.15204 4.69603 9.00001 5.06005C8.96784 4.98302 8.93313 4.90733 8.89598 4.83308C8.89592 4.83296 8.89604 4.8332 8.89598 4.83308C8.7576 4.55657 8.58518 4.29968 8.38405 4.06859ZM9.00001 5.06005C9 5.06005 9.00001 5.06004 9.00001 5.06005V5.06005Z" fill="white"/>
</svg>
