<svg width="10" height="12" viewBox="0 0 10 12" fill="none" xmlns="http://www.w3.org/2000/svg">
<path d="M0.584423 6.47944C0.5067 6.42593 0.44315 6.35432 0.399246 6.27079C0.355344 6.18726 0.332405 6.09431 0.332405 5.99994C0.332405 5.90558 0.355344 5.81263 0.399246 5.7291C0.44315 5.64557 0.5067 5.57396 0.584423 5.52045L8.16776 0.270445C8.25522 0.209677 8.35767 0.174041 8.46397 0.167409C8.57027 0.160777 8.67635 0.183403 8.7707 0.232829C8.86504 0.282254 8.94403 0.356589 8.99909 0.447758C9.05415 0.538926 9.08318 0.64344 9.08301 0.749946L9.08301 11.2499C9.08257 11.3562 9.05317 11.4603 8.99798 11.5511C8.94279 11.6419 8.86388 11.716 8.76976 11.7653C8.67564 11.8146 8.56985 11.8373 8.46378 11.831C8.35771 11.8247 8.25537 11.7896 8.16776 11.7294L0.584423 6.47944Z" fill="url(#paint0_linear_2989_24528)"/>
<defs>
<linearGradient id="paint0_linear_2989_24528" x1="9.08301" y1="11.832" x2="7.95681" y2="-2.53024" gradientUnits="userSpaceOnUse">
<stop stop-color="#1CB35B"/>
<stop offset="1" stop-color="#20B598"/>
</linearGradient>
</defs>
</svg>
