<svg width="18" height="18" viewBox="0 0 24 24" fill="none" xmlns="http://www.w3.org/2000/svg">
<path fill-rule="evenodd" clip-rule="evenodd" d="M11.7771 20.2633C9.75127 19.0165 7.86666 17.5491 6.15702 15.8874C4.95507 14.6907 4.04003 13.2318 3.482 11.6224C2.47781 8.50046 3.65077 4.9264 6.93337 3.86868C8.65857 3.31329 10.5428 3.63072 11.9965 4.72168C13.4508 3.63205 15.3343 3.31473 17.0596 3.86868C20.3422 4.9264 21.5236 8.50046 20.5194 11.6224C19.9614 13.2318 19.0464 14.6907 17.8444 15.8874C16.1348 17.5491 14.2502 19.0165 12.2243 20.2633L12.0049 20.3998L11.7771 20.2633Z" stroke="url(#paint0_linear_2380_29775)" stroke-linejoin="round"/>
<path fill-rule="evenodd" clip-rule="evenodd" d="M15.4912 7.38306C16.4855 7.70066 17.1919 8.59327 17.2802 9.6435L15.4912 7.38306Z" fill="url(#paint1_linear_2380_29775)"/>
<path d="M15.4912 7.38306C16.4855 7.70066 17.1919 8.59327 17.2802 9.6435" stroke="url(#paint2_linear_2380_29775)" stroke-linecap="round" stroke-linejoin="round"/>
<defs>
<linearGradient id="paint0_linear_2380_29775" x1="3.13379" y1="3.60034" x2="25.0153" y2="4.95889" gradientUnits="userSpaceOnUse">
<stop stop-color="#1CB35B"/>
<stop offset="1" stop-color="#20B598"/>
</linearGradient>
<linearGradient id="paint1_linear_2380_29775" x1="15.4912" y1="7.38306" x2="17.7025" y2="7.48599" gradientUnits="userSpaceOnUse">
<stop stop-color="#1CB35B"/>
<stop offset="1" stop-color="#20B598"/>
</linearGradient>
<linearGradient id="paint2_linear_2380_29775" x1="15.4912" y1="7.38306" x2="17.7025" y2="7.48599" gradientUnits="userSpaceOnUse">
<stop stop-color="#1CB35B"/>
<stop offset="1" stop-color="#20B598"/>
</linearGradient>
</defs>
</svg>
