<svg width="10" height="12" viewBox="0 0 10 12" fill="none" xmlns="http://www.w3.org/2000/svg">
<path d="M9.41558 6.47944C9.4933 6.42593 9.55685 6.35432 9.60075 6.27079C9.64466 6.18726 9.66759 6.09431 9.66759 5.99994C9.66759 5.90558 9.64466 5.81263 9.60075 5.7291C9.55685 5.64557 9.4933 5.57396 9.41558 5.52045L1.83224 0.270445C1.74478 0.209677 1.64233 0.174041 1.53603 0.167409C1.42973 0.160777 1.32365 0.183403 1.2293 0.232829C1.13496 0.282254 1.05597 0.356589 1.00091 0.447758C0.945848 0.538926 0.916825 0.64344 0.916992 0.749946L0.916993 11.2499C0.917432 11.3562 0.946828 11.4603 1.00202 11.5511C1.05721 11.6419 1.13612 11.716 1.23024 11.7653C1.32436 11.8146 1.43015 11.8373 1.53622 11.831C1.64229 11.8247 1.74463 11.7896 1.83224 11.7294L9.41558 6.47944Z" fill="url(#paint0_linear_2989_24531)"/>
<defs>
<linearGradient id="paint0_linear_2989_24531" x1="0.916992" y1="11.832" x2="2.04319" y2="-2.53024" gradientUnits="userSpaceOnUse">
<stop stop-color="#1CB35B"/>
<stop offset="1" stop-color="#20B598"/>
</linearGradient>
</defs>
</svg>
