<svg width="17" height="16" viewBox="0 0 17 16" fill="none" xmlns="http://www.w3.org/2000/svg">
<g clip-path="url(#clip0_2380_29190)">
<path d="M8 2.66675H3.33333C2.97971 2.66675 2.64057 2.80722 2.39052 3.05727C2.14048 3.30732 2 3.64646 2 4.00008V13.3334C2 13.687 2.14048 14.0262 2.39052 14.2762C2.64057 14.5263 2.97971 14.6667 3.33333 14.6667H12.6667C13.0203 14.6667 13.3594 14.5263 13.6095 14.2762C13.8595 14.0262 14 13.687 14 13.3334V8.66675" stroke="#49516F" stroke-width="1.5" stroke-linecap="round" stroke-linejoin="round"/>
<path d="M13 1.66665C13.2652 1.40144 13.6249 1.25244 14 1.25244C14.3751 1.25244 14.7348 1.40144 15 1.66665C15.2652 1.93187 15.4142 2.29158 15.4142 2.66665C15.4142 3.04173 15.2652 3.40144 15 3.66665L8.66667 9.99999L6 10.6667L6.66667 7.99999L13 1.66665Z" stroke="#49516F" stroke-width="1.5" stroke-linecap="round" stroke-linejoin="round"/>
</g>
<defs>
<clipPath id="clip0_2380_29190">
<rect width="16" height="16" fill="white" transform="translate(0.666992)"/>
</clipPath>
</defs>
</svg>
