<svg width="18" height="18" viewBox="0 0 18 18" fill="none" xmlns="http://www.w3.org/2000/svg">
<path fill-rule="evenodd" clip-rule="evenodd" d="M8.78125 17.116C6.79152 15.8914 4.94051 14.4502 3.26134 12.8181C2.08081 11.6427 1.18208 10.2098 0.633997 8.6291C-0.352293 5.56278 0.79976 2.05242 4.02385 1.01356C5.7183 0.468065 7.5689 0.77984 8.99674 1.85135C10.4251 0.781145 12.2751 0.469479 13.9696 1.01356C17.1937 2.05242 18.3541 5.56278 17.3678 8.6291C16.8197 10.2098 15.921 11.6427 14.7404 12.8181C13.0613 14.4502 11.2103 15.8914 9.22052 17.116L9.00503 17.25L8.78125 17.116Z" fill="#E02D3C"/>
<path fill-rule="evenodd" clip-rule="evenodd" d="M12.4277 4.46521C13.4043 4.77715 14.0981 5.65385 14.1848 6.68536L12.4277 4.46521Z" fill="white"/>
<path d="M12.4277 4.46521C13.4043 4.77715 14.0981 5.65385 14.1848 6.68536" stroke="white" stroke-linecap="round" stroke-linejoin="round"/>
</svg>
